<svg width="64" height="64" viewBox="0 0 64 64" fill="none" xmlns="http://www.w3.org/2000/svg">
  <rect width="64" height="64" rx="16" fill="url(#paint0_linear)" />
  <path
    d="M20.5 32C20.5 24.544 26.544 18.5 34 18.5C39.184 18.5 43.744 21.42 46 25.746L42.272 27.68C40.664 24.712 37.56 22.5 34 22.5C29.248 22.5 25.5 26.248 25.5 31C25.5 35.752 29.248 39.5 34 39.5C37.56 39.5 40.664 37.288 42.272 34.32L46 36.254C43.744 40.58 39.184 43.5 34 43.5C26.544 43.5 20.5 37.456 20.5 30Z"
    fill="white"
  />
  <defs>
    <linearGradient id="paint0_linear" x1="10" y1="10" x2="54" y2="54" gradientUnits="userSpaceOnUse">
      <stop stop-color="#7C3AED" />
      <stop offset="1" stop-color="#5B21B6" />
    </linearGradient>
  </defs>
</svg>
